# Blender 4.5.4 LTS
# www.blender.org
o bullet
v 0.196419 0.233854 -0.000000
v 0.138889 0.233854 -0.138889
v -0.000000 0.233854 -0.196419
v -0.138889 0.233854 -0.138889
v -0.196419 0.233854 -0.000000
v -0.138889 0.233854 0.138889
v -0.000000 0.233854 0.196419
v 0.138889 0.233854 0.138889
v 0.196419 -0.113794 -0.000000
v 0.138889 -0.113794 -0.138889
v -0.000000 -0.113794 -0.196419
v -0.138889 -0.113794 -0.138889
v -0.196419 -0.113794 -0.000000
v -0.138889 -0.113794 0.138889
v -0.000000 -0.113794 0.196419
v 0.138889 -0.113794 0.138889
v 0.196419 -0.461444 0.000000
v 0.138889 -0.461444 -0.138889
v -0.000000 -0.461444 -0.196419
v -0.138889 -0.461444 -0.138889
v -0.196419 -0.461444 0.000000
v -0.138889 -0.461444 0.138889
v -0.000000 -0.461444 0.196419
v 0.138889 -0.461444 0.138889
v 0.196419 -0.809094 0.000000
v 0.138889 -0.809094 -0.138889
v -0.000000 -0.809094 -0.196419
v -0.138889 -0.809094 -0.138889
v -0.196419 -0.809094 0.000000
v -0.138889 -0.809094 0.138889
v -0.000000 -0.809094 0.196419
v 0.138889 -0.809094 0.138889
v 0.196419 -1.156744 0.000000
v 0.138889 -1.156744 -0.138889
v -0.000000 -1.156744 -0.196419
v -0.138889 -1.156744 -0.138889
v -0.196419 -1.156744 0.000000
v -0.138889 -1.156744 0.138889
v -0.000000 -1.156744 0.196419
v 0.138889 -1.156744 0.138889
v 0.138889 0.289174 -0.138889
v 0.196419 0.289174 -0.000000
v 0.138889 0.289174 0.138889
v -0.000000 0.289174 -0.196419
v -0.138889 0.289174 -0.138889
v -0.196419 0.289174 -0.000000
v -0.138889 0.289174 0.138889
v -0.000000 0.289174 0.196419
v 0.110450 0.393274 -0.110450
v 0.156199 0.393274 -0.000000
v -0.000000 0.393274 -0.156199
v 0.110450 0.393274 0.110450
v -0.000000 0.393274 0.156199
v -0.110450 0.393274 -0.110450
v -0.156199 0.393274 -0.000000
v -0.110450 0.393274 0.110450
v 0.110450 0.512414 -0.110450
v 0.156199 0.512414 -0.000000
v -0.000000 0.512414 -0.156199
v 0.110450 0.512414 0.110450
v -0.110450 0.512414 -0.110450
v -0.000000 0.512414 0.156199
v -0.110450 0.512414 0.110450
v -0.156199 0.512414 -0.000000
v 0.092414 0.512414 -0.092414
v 0.130693 0.512414 -0.000000
v -0.000000 0.512414 -0.130693
v 0.092414 0.512414 0.092414
v -0.092414 0.512414 -0.092414
v -0.000000 0.512414 0.130693
v -0.130693 0.512414 -0.000000
v -0.092414 0.512414 0.092414
v 0.092414 0.672754 -0.092414
v 0.130693 0.672754 -0.000000
v -0.000000 0.672754 -0.130693
v 0.092414 0.672754 0.092414
v -0.092414 0.672754 -0.092414
v -0.000000 0.672754 0.130693
v -0.130693 0.672754 -0.000000
v -0.092414 0.672754 0.092414
v 0.076226 0.878744 -0.076226
v 0.107799 0.878744 -0.000000
v -0.000000 0.878744 -0.107799
v 0.076226 0.878744 0.076226
v -0.076226 0.878744 -0.076226
v -0.000000 0.878744 0.107799
v -0.107799 0.878744 -0.000000
v -0.076226 0.878744 0.076226
v 0.012268 1.207284 -0.012268
v 0.017350 1.207284 -0.000000
v -0.000000 1.207284 -0.017350
v 0.012268 1.207284 0.012268
v -0.012268 1.207284 -0.012268
v -0.000000 1.207284 0.017349
v -0.017349 1.207284 -0.000000
v -0.012268 1.207284 0.012268
v 0.183096 -1.177259 0.000000
v 0.129469 -1.177259 -0.129469
v 0.129469 -1.177259 0.129469
v -0.000000 -1.177259 -0.183096
v -0.129469 -1.177259 -0.129469
v -0.183096 -1.177259 0.000000
v -0.129469 -1.177259 0.129469
v -0.000000 -1.177259 0.183096
v 0.183096 -1.190206 0.000000
v 0.129469 -1.190206 -0.129469
v 0.129469 -1.190206 0.129469
v -0.000000 -1.190206 -0.183096
v -0.000000 -1.190206 0.183096
v -0.129469 -1.190206 -0.129469
v -0.183096 -1.190206 0.000000
v -0.129469 -1.190206 0.129469
v 0.205452 -1.190206 0.000000
v 0.145276 -1.190206 -0.145276
v 0.145277 -1.190206 0.145276
v -0.000000 -1.190206 -0.205452
v -0.000000 -1.190206 0.205452
v -0.145276 -1.190206 -0.145276
v -0.145276 -1.190206 0.145276
v -0.205452 -1.190206 0.000000
v 0.205452 -1.210000 0.000000
v 0.145276 -1.210000 -0.145276
v 0.145277 -1.210000 0.145276
v -0.000000 -1.210000 -0.205452
v -0.000000 -1.210000 0.205452
v -0.145276 -1.210000 -0.145276
v -0.145276 -1.210000 0.145276
v -0.205452 -1.210000 0.000000
v 0.105957 -1.210000 0.000000
v 0.074923 -1.210000 -0.074923
v 0.074923 -1.210000 0.074923
v -0.000000 -1.210000 -0.105957
v -0.000000 -1.210000 0.105957
v -0.074923 -1.210000 -0.074923
v -0.074923 -1.210000 0.074923
v -0.105957 -1.210000 0.000000
v 0.105957 -1.199506 0.000000
v 0.074923 -1.199506 -0.074923
v 0.074923 -1.199506 0.074923
v -0.000000 -1.199506 -0.105957
v -0.000000 -1.199506 0.105957
v -0.074923 -1.199506 -0.074923
v -0.074923 -1.199506 0.074923
v -0.105957 -1.199506 0.000000
v 0.096921 -1.199506 0.000000
v 0.068533 -1.199506 -0.068533
v 0.068534 -1.199506 0.068533
v -0.000000 -1.199506 -0.096921
v -0.000000 -1.199506 0.096921
v -0.068533 -1.199506 -0.068533
v -0.068533 -1.199506 0.068533
v -0.096921 -1.199506 0.000000
v 0.096921 -1.210000 0.000000
v 0.068533 -1.210000 -0.068533
v 0.068534 -1.210000 0.068533
v -0.000000 -1.210000 -0.096921
v -0.000000 -1.210000 0.096921
v -0.068533 -1.210000 -0.068533
v -0.068533 -1.210000 0.068533
v -0.096921 -1.210000 0.000000
v 0.038994 -1.210000 0.000000
v 0.027573 -1.210000 -0.027573
v 0.027573 -1.210000 0.027573
v -0.000000 -1.210000 -0.038994
v -0.000000 -1.210000 0.038994
v -0.027573 -1.210000 -0.027573
v -0.027573 -1.210000 0.027573
v -0.038994 -1.210000 0.000000
v 0.000587 -1.196928 0.000000
v 0.000415 -1.196928 -0.000415
v 0.000415 -1.196928 0.000415
v -0.000000 -1.196928 -0.000587
v -0.000000 -1.196928 0.000587
v -0.000415 -1.196928 -0.000415
v -0.000415 -1.196928 0.000415
v -0.000587 -1.196928 0.000000
vn 1.0000 -0.0000 -0.0000
vn 0.7071 -0.0000 -0.7071
vn -0.0000 -0.0000 -1.0000
vn -0.7071 -0.0000 -0.7071
vn -1.0000 -0.0000 -0.0000
vn -0.7071 -0.0000 0.7071
vn -0.0000 -0.0000 1.0000
vn 0.7071 -0.0000 0.7071
vn 0.9579 -0.2871 -0.0000
vn 0.6773 -0.2872 -0.6773
vn -0.0000 -0.2871 -0.9579
vn -0.6773 -0.2872 -0.6773
vn -0.9579 -0.2871 -0.0000
vn -0.6773 -0.2872 0.6773
vn -0.0000 -0.2871 0.9579
vn 0.6773 -0.2871 0.6773
vn -0.0672 -0.9845 -0.1622
vn -0.0000 -0.9762 -0.2168
vn 0.0672 -0.9845 -0.1622
vn -0.0000 -1.0000 -0.0000
vn 0.0672 -0.9845 0.1622
vn -0.0000 -0.9762 0.2168
vn -0.1533 -0.9762 0.1533
vn -0.0000 1.0000 -0.0000
vn 0.6950 0.1842 -0.6950
vn 0.9829 0.1842 -0.0000
vn 0.6950 0.1842 0.6950
vn -0.0000 0.1842 -0.9829
vn -0.6950 0.1842 -0.6950
vn -0.9829 0.1842 -0.0000
vn -0.6950 0.1842 0.6950
vn -0.0000 0.1842 0.9829
vn 0.7060 0.0551 -0.7060
vn 0.9985 0.0554 -0.0000
vn -0.0000 0.0554 -0.9985
vn 0.7060 0.0551 0.7060
vn -0.7060 0.0551 -0.7060
vn -0.0000 0.0554 0.9985
vn -0.9985 0.0554 -0.0000
vn -0.7060 0.0551 0.7060
vn 0.6944 0.1887 -0.6944
vn 0.9820 0.1887 -0.0000
vn -0.0000 0.1887 -0.9820
vn 0.6944 0.1887 0.6944
vn -0.6944 0.1887 -0.6944
vn -0.0000 0.1887 0.9820
vn -0.9820 0.1887 -0.0000
vn -0.6944 0.1886 0.6944
vn 0.6817 0.2654 -0.6817
vn 0.9641 0.2654 -0.0000
vn -0.0000 0.2654 -0.9641
vn 0.6817 0.2654 0.6817
vn -0.6817 0.2654 -0.6817
vn -0.0000 0.2654 0.9641
vn -0.9641 0.2654 -0.0000
vn -0.6817 0.2654 0.6817
vn 0.9579 -0.2872 -0.0000
vn 0.6773 -0.2872 0.6773
vn -0.0000 -0.2872 -0.9579
vn -0.9579 -0.2872 -0.0000
vn -0.0000 -0.2872 0.9579
vn -0.1150 -0.9867 0.1150
vn -0.0447 -0.9932 -0.1079
vn -0.0000 -0.9867 0.1626
vn -0.0000 -0.9867 -0.1626
vn 0.0447 -0.9932 0.1079
vn 0.0447 -0.9932 -0.1079
vn -0.3194 -0.9384 0.1323
vn -0.3194 -0.9384 -0.1323
vn 0.3194 -0.9383 0.1323
vn 0.3194 -0.9384 -0.1323
s 1
f 1//1 9//1 10//2 2//2
f 2//2 10//2 11//3 3//3
f 3//3 11//3 12//4 4//4
f 4//4 12//4 13//5 5//5
f 5//5 13//5 14//6 6//6
f 6//6 14//6 15//7 7//7
f 7//7 15//7 16//8 8//8
f 8//8 16//8 9//1 1//1
f 9//1 17//1 18//2 10//2
f 10//2 18//2 19//3 11//3
f 11//3 19//3 20//4 12//4
f 12//4 20//4 21//5 13//5
f 13//5 21//5 22//6 14//6
f 14//6 22//6 23//7 15//7
f 15//7 23//7 24//8 16//8
f 16//8 24//8 17//1 9//1
f 17//1 25//1 26//2 18//2
f 18//2 26//2 27//3 19//3
f 19//3 27//3 28//4 20//4
f 20//4 28//4 29//5 21//5
f 21//5 29//5 30//6 22//6
f 22//6 30//6 31//7 23//7
f 23//7 31//7 32//8 24//8
f 24//8 32//8 25//1 17//1
f 25//1 33//9 34//10 26//2
f 26//2 34//10 35//11 27//3
f 27//3 35//11 36//12 28//4
f 28//4 36//12 37//13 29//5
f 29//5 37//13 38//14 30//6
f 30//6 38//14 39//15 31//7
f 31//7 39//15 40//16 32//8
f 32//8 40//16 33//9 25//1
f 171//17 173//18 175//19 176//20 174//21 172//22 170//23 169//20
f 90//24 89//24 91//24 93//24 95//24 96//24 94//24 92//24
f 1//1 2//2 41//25 42//26
f 8//8 1//1 42//26 43//27
f 2//2 3//3 44//28 41//25
f 3//3 4//4 45//29 44//28
f 4//4 5//5 46//30 45//29
f 5//5 6//6 47//31 46//30
f 6//6 7//7 48//32 47//31
f 7//7 8//8 43//27 48//32
f 42//26 41//25 49//25 50//26
f 41//25 44//28 51//28 49//25
f 43//27 42//26 50//26 52//27
f 48//32 43//27 52//27 53//32
f 44//28 45//29 54//29 51//28
f 45//29 46//30 55//30 54//29
f 46//30 47//31 56//31 55//30
f 47//31 48//32 53//32 56//31
f 50//26 49//25 57//2 58//1
f 49//25 51//28 59//3 57//2
f 52//27 50//26 58//1 60//8
f 51//28 54//29 61//4 59//3
f 53//32 52//27 60//8 62//7
f 56//31 53//32 62//7 63//6
f 54//29 55//30 64//5 61//4
f 55//30 56//31 63//6 64//5
f 58//24 57//24 65//24 66//24
f 57//24 59//24 67//24 65//24
f 60//24 58//24 66//24 68//24
f 59//24 61//24 69//24 67//24
f 62//24 60//24 68//24 70//24
f 61//24 64//24 71//24 69//24
f 63//24 62//24 70//24 72//24
f 64//24 63//24 72//24 71//24
f 66//1 65//2 73//33 74//34
f 65//2 67//3 75//35 73//33
f 68//8 66//1 74//34 76//36
f 67//3 69//4 77//37 75//35
f 70//7 68//8 76//36 78//38
f 69//4 71//5 79//39 77//37
f 72//6 70//7 78//38 80//40
f 71//5 72//6 80//40 79//39
f 74//34 73//33 81//41 82//42
f 73//33 75//35 83//43 81//41
f 76//36 74//34 82//42 84//44
f 75//35 77//37 85//45 83//43
f 78//38 76//36 84//44 86//46
f 77//37 79//39 87//47 85//45
f 80//40 78//38 86//46 88//48
f 79//39 80//40 88//48 87//47
f 82//42 81//41 89//49 90//50
f 81//41 83//43 91//51 89//49
f 84//44 82//42 90//50 92//52
f 83//43 85//45 93//53 91//51
f 86//46 84//44 92//52 94//54
f 85//45 87//47 95//55 93//53
f 88//48 86//46 94//54 96//56
f 87//47 88//48 96//56 95//55
f 34//10 33//9 97//57 98//10
f 33//9 40//16 99//58 97//57
f 35//11 34//10 98//10 100//59
f 36//12 35//11 100//59 101//12
f 37//13 36//12 101//12 102//60
f 38//14 37//13 102//60 103//14
f 39//15 38//14 103//14 104//61
f 40//16 39//15 104//61 99//58
f 98//10 97//57 105//1 106//2
f 97//57 99//58 107//8 105//1
f 100//59 98//10 106//2 108//3
f 99//58 104//61 109//7 107//8
f 101//12 100//59 108//3 110//4
f 102//60 101//12 110//4 111//5
f 103//14 102//60 111//5 112//6
f 104//61 103//14 112//6 109//7
f 106//24 105//24 113//24 114//24
f 105//24 107//24 115//24 113//24
f 108//24 106//24 114//24 116//24
f 107//24 109//24 117//24 115//24
f 110//24 108//24 116//24 118//24
f 109//24 112//24 119//24 117//24
f 111//24 110//24 118//24 120//24
f 112//24 111//24 120//24 119//24
f 114//2 113//1 121//1 122//2
f 113//1 115//8 123//8 121//1
f 116//3 114//2 122//2 124//3
f 115//8 117//7 125//7 123//8
f 118//4 116//3 124//3 126//4
f 117//7 119//6 127//6 125//7
f 120//5 118//4 126//4 128//5
f 119//6 120//5 128//5 127//6
f 122//20 121//20 129//20 130//20
f 121//20 123//20 131//20 129//20
f 124//20 122//20 130//20 132//20
f 123//20 125//20 133//20 131//20
f 126//20 124//20 132//20 134//20
f 125//20 127//20 135//20 133//20
f 128//20 126//20 134//20 136//20
f 127//20 128//20 136//20 135//20
f 130//6 129//5 137//5 138//6
f 129//5 131//4 139//4 137//5
f 132//7 130//6 138//6 140//7
f 131//4 133//3 141//3 139//4
f 134//8 132//7 140//7 142//8
f 133//3 135//2 143//2 141//3
f 136//1 134//8 142//8 144//1
f 135//2 136//1 144//1 143//2
f 138//20 137//20 145//20 146//20
f 137//20 139//20 147//20 145//20
f 140//20 138//20 146//20 148//20
f 139//20 141//20 149//20 147//20
f 142//20 140//20 148//20 150//20
f 141//20 143//20 151//20 149//20
f 144//20 142//20 150//20 152//20
f 143//20 144//20 152//20 151//20
f 146//2 145//1 153//1 154//2
f 145//1 147//8 155//8 153//1
f 148//3 146//2 154//2 156//3
f 147//8 149//7 157//7 155//8
f 150//4 148//3 156//3 158//4
f 149//7 151//6 159//6 157//7
f 152//5 150//4 158//4 160//5
f 151//6 152//5 160//5 159//6
f 154//20 153//20 161//20 162//62
f 153//20 155//20 163//63 161//20
f 156//20 154//20 162//62 164//64
f 155//20 157//20 165//65 163//63
f 158//20 156//20 164//64 166//66
f 157//20 159//20 167//67 165//65
f 160//20 158//20 166//66 168//20
f 159//20 160//20 168//20 167//67
f 162//62 161//68 169//68 170//23
f 161//69 163//69 171//69 169//69
f 164//64 162//62 170//23 172//22
f 163//63 165//65 173//18 171//17
f 166//66 164//64 172//22 174//21
f 165//65 167//67 175//19 173//18
f 168//70 166//70 174//70 176//70
f 167//71 168//71 176//71 175//71
