# Blender 5.0.0
# www.blender.org
o Cylinder
v 0.000000 -1.662793 -0.367172
v 0.000000 -1.285778 -0.500052
v 0.071631 -1.662793 -0.360116
v 0.097555 -1.285778 -0.490442
v 0.140510 -1.662793 -0.339222
v 0.191362 -1.285778 -0.461988
v 0.203990 -1.662793 -0.305291
v 0.277814 -1.285778 -0.415776
v 0.259629 -1.662793 -0.259629
v 0.353589 -1.285778 -0.353589
v 0.305292 -1.662793 -0.203990
v 0.415776 -1.285778 -0.277814
v 0.339222 -1.662793 -0.140510
v 0.461986 -1.285778 -0.191361
v 0.360116 -1.662793 -0.071631
v 0.490442 -1.285778 -0.097555
v 0.367172 -1.662793 0.000000
v 0.500052 -1.285778 0.000000
v 0.360116 -1.662793 0.071633
v 0.490442 -1.285778 0.097555
v 0.339222 -1.662793 0.140510
v 0.461986 -1.285778 0.191362
v 0.305292 -1.662793 0.203990
v 0.415776 -1.285778 0.277814
v 0.259629 -1.662793 0.259629
v 0.353589 -1.285778 0.353589
v 0.203990 -1.662793 0.305292
v 0.277814 -1.285778 0.415778
v 0.140510 -1.662793 0.339222
v 0.191362 -1.285778 0.461988
v 0.071631 -1.662793 0.360116
v 0.097555 -1.285778 0.490442
v 0.000000 -1.662793 0.367172
v 0.000000 -1.285778 0.500052
v -0.071633 -1.662793 0.360116
v -0.097555 -1.285778 0.490442
v -0.140510 -1.662793 0.339222
v -0.191362 -1.285778 0.461988
v -0.203990 -1.662793 0.305292
v -0.277814 -1.285778 0.415778
v -0.259629 -1.662793 0.259629
v -0.353589 -1.285778 0.353589
v -0.305292 -1.662793 0.203990
v -0.415778 -1.285778 0.277814
v -0.339222 -1.662793 0.140510
v -0.461988 -1.285778 0.191362
v -0.360116 -1.662793 0.071633
v -0.490442 -1.285778 0.097555
v -0.367172 -1.662793 0.000000
v -0.500052 -1.285778 0.000000
v -0.360116 -1.662793 -0.071631
v -0.490442 -1.285778 -0.097555
v -0.339222 -1.662793 -0.140510
v -0.461988 -1.285778 -0.191361
v -0.305292 -1.662793 -0.203990
v -0.415778 -1.285778 -0.277814
v -0.259629 -1.662793 -0.259629
v -0.353589 -1.285778 -0.353589
v -0.203990 -1.662793 -0.305291
v -0.277814 -1.285778 -0.415776
v -0.140510 -1.662793 -0.339222
v -0.191362 -1.285778 -0.461988
v -0.071633 -1.662793 -0.360116
v -0.097555 -1.285778 -0.490442
v 0.000000 -0.228013 -0.500052
v 0.000000 0.324531 -0.426627
v 0.083231 0.324531 -0.418430
v 0.097555 -0.228013 -0.490442
v 0.163264 0.324531 -0.394153
v 0.191362 -0.228013 -0.461988
v 0.237022 0.324531 -0.354729
v 0.277814 -0.228013 -0.415776
v 0.301672 0.324531 -0.301672
v 0.353589 -0.228013 -0.353589
v 0.354729 0.324531 -0.237022
v 0.415776 -0.228013 -0.277814
v 0.394153 0.324531 -0.163264
v 0.461986 -0.228013 -0.191362
v 0.418430 0.324531 -0.083231
v 0.490442 -0.228013 -0.097555
v 0.426627 0.324531 -0.000000
v 0.500052 -0.228013 0.000000
v 0.418430 0.324531 0.083231
v 0.490442 -0.228013 0.097555
v 0.394153 0.324531 0.163264
v 0.461986 -0.228013 0.191362
v 0.354729 0.324531 0.237022
v 0.415776 -0.228013 0.277814
v 0.301672 0.324531 0.301672
v 0.353589 -0.228013 0.353589
v 0.237022 0.324531 0.354729
v 0.277814 -0.228013 0.415778
v 0.163264 0.324531 0.394153
v 0.191362 -0.228013 0.461988
v 0.083231 0.324531 0.418430
v 0.097555 -0.228013 0.490442
v 0.000000 0.324531 0.426627
v 0.000000 -0.228013 0.500052
v -0.083231 0.324531 0.418430
v -0.097555 -0.228013 0.490442
v -0.163264 0.324531 0.394153
v -0.191362 -0.228013 0.461988
v -0.237022 0.324531 0.354729
v -0.277814 -0.228013 0.415778
v -0.301672 0.324531 0.301672
v -0.353589 -0.228013 0.353589
v -0.354729 0.324531 0.237022
v -0.415778 -0.228013 0.277814
v -0.394153 0.324531 0.163264
v -0.461988 -0.228013 0.191362
v -0.418430 0.324531 0.083231
v -0.490442 -0.228013 0.097555
v -0.426627 0.324531 -0.000000
v -0.500052 -0.228013 0.000000
v -0.418430 0.324531 -0.083231
v -0.490442 -0.228013 -0.097555
v -0.394153 0.324531 -0.163264
v -0.461988 -0.228013 -0.191362
v -0.354729 0.324531 -0.237022
v -0.415778 -0.228013 -0.277814
v -0.301672 0.324531 -0.301672
v -0.353589 -0.228013 -0.353589
v -0.237022 0.324531 -0.354729
v -0.277814 -0.228013 -0.415776
v -0.163264 0.324531 -0.394153
v -0.191362 -0.228013 -0.461988
v -0.083231 0.324531 -0.418430
v -0.097555 -0.228013 -0.490442
v 0.006576 1.661994 -0.033061
v 0.000000 1.661994 -0.033709
v -0.006576 1.661994 -0.033061
v 0.012900 1.661994 -0.031143
v 0.018728 1.661994 -0.028028
v 0.023836 1.661994 -0.023836
v 0.028028 1.661994 -0.018728
v 0.031143 1.661994 -0.012900
v 0.033061 1.661994 -0.006576
v 0.033709 1.661994 -0.000000
v 0.033061 1.661994 0.006576
v 0.031143 1.661994 0.012900
v 0.028028 1.661994 0.018728
v 0.023836 1.661994 0.023836
v 0.018728 1.661994 0.028028
v 0.012900 1.661994 0.031143
v 0.006576 1.661994 0.033061
v 0.000000 1.661994 0.033709
v -0.006576 1.661994 0.033061
v -0.012900 1.661994 0.031143
v -0.018728 1.661994 0.028028
v -0.023836 1.661994 0.023836
v -0.028028 1.661994 0.018728
v -0.031143 1.661994 0.012900
v -0.033061 1.661994 0.006576
v -0.033709 1.661994 -0.000000
v -0.033061 1.661994 -0.006576
v -0.031143 1.661994 -0.012900
v -0.028028 1.661994 -0.018728
v -0.023836 1.661994 -0.023836
v -0.018728 1.661994 -0.028028
v -0.012900 1.661994 -0.031143
vn 0.0925 -0.3310 -0.9391
vn 0.2739 -0.3310 -0.9030
vn 0.4448 -0.3310 -0.8322
vn 0.5986 -0.3310 -0.7294
vn 0.7294 -0.3310 -0.5986
vn 0.8322 -0.3310 -0.4448
vn 0.9030 -0.3310 -0.2739
vn 0.9391 -0.3310 -0.0925
vn 0.9391 -0.3310 0.0925
vn 0.9030 -0.3310 0.2739
vn 0.8322 -0.3310 0.4448
vn 0.7294 -0.3310 0.5986
vn 0.5986 -0.3310 0.7294
vn 0.4448 -0.3310 0.8322
vn 0.2739 -0.3310 0.9030
vn 0.0925 -0.3310 0.9391
vn -0.0925 -0.3310 0.9391
vn -0.2739 -0.3310 0.9030
vn -0.4448 -0.3310 0.8322
vn -0.5986 -0.3310 0.7294
vn -0.7294 -0.3310 0.5986
vn -0.8322 -0.3310 0.4448
vn -0.9030 -0.3310 0.2739
vn -0.9391 -0.3310 0.0925
vn -0.9391 -0.3310 -0.0925
vn -0.9030 -0.3310 -0.2739
vn -0.8322 -0.3310 -0.4448
vn -0.7294 -0.3310 -0.5986
vn -0.5986 -0.3310 -0.7294
vn -0.4448 -0.3310 -0.8322
vn -0.2739 -0.3310 -0.9030
vn -0.0925 -0.3310 -0.9391
vn -0.0000 -1.0000 -0.0000
vn 0.0972 0.1311 -0.9866
vn 0.2878 0.1311 -0.9487
vn 0.4673 0.1311 -0.8743
vn 0.6289 0.1311 -0.7663
vn 0.7663 0.1311 -0.6289
vn 0.8743 0.1311 -0.4673
vn 0.9487 0.1311 -0.2878
vn 0.9866 0.1311 -0.0972
vn 0.9866 0.1311 0.0972
vn 0.9487 0.1311 0.2878
vn 0.8743 0.1311 0.4673
vn 0.7663 0.1311 0.6289
vn 0.6289 0.1311 0.7663
vn 0.4673 0.1311 0.8743
vn 0.2878 0.1311 0.9487
vn 0.0972 0.1311 0.9866
vn -0.0972 0.1311 0.9866
vn -0.2878 0.1311 0.9487
vn -0.4673 0.1311 0.8743
vn -0.6289 0.1311 0.7663
vn -0.7663 0.1311 0.6289
vn -0.8743 0.1311 0.4673
vn -0.9487 0.1311 0.2878
vn -0.9866 0.1311 0.0972
vn -0.9866 0.1311 -0.0972
vn -0.9487 0.1311 -0.2878
vn -0.8743 0.1311 -0.4673
vn -0.7663 0.1311 -0.6289
vn -0.6289 0.1311 -0.7663
vn -0.4673 0.1311 -0.8743
vn -0.2878 0.1311 -0.9487
vn -0.0972 0.1311 -0.9866
vn 0.0980 -0.0000 -0.9952
vn 0.0941 0.2806 -0.9552
vn -0.0941 0.2806 -0.9552
vn -0.0980 -0.0000 -0.9952
vn 0.2786 0.2806 -0.9185
vn 0.2903 -0.0000 -0.9569
vn 0.4525 0.2806 -0.8465
vn 0.4714 -0.0000 -0.8819
vn 0.6089 0.2806 -0.7419
vn 0.6344 -0.0000 -0.7730
vn 0.7419 0.2806 -0.6089
vn 0.7730 -0.0000 -0.6344
vn 0.8465 0.2806 -0.4525
vn 0.8819 -0.0000 -0.4714
vn 0.9185 0.2806 -0.2786
vn 0.9569 -0.0000 -0.2903
vn 0.9552 0.2806 -0.0941
vn 0.9952 -0.0000 -0.0980
vn 0.9552 0.2806 0.0941
vn 0.9952 -0.0000 0.0980
vn 0.9185 0.2806 0.2786
vn 0.9569 -0.0000 0.2903
vn 0.8465 0.2806 0.4525
vn 0.8819 -0.0000 0.4714
vn 0.7419 0.2806 0.6089
vn 0.7730 -0.0000 0.6344
vn 0.6089 0.2806 0.7419
vn 0.6344 -0.0000 0.7730
vn 0.4525 0.2806 0.8465
vn 0.4714 -0.0000 0.8819
vn 0.2786 0.2806 0.9185
vn 0.2903 -0.0000 0.9569
vn 0.0941 0.2806 0.9552
vn 0.0980 -0.0000 0.9952
vn -0.0941 0.2806 0.9552
vn -0.0980 -0.0000 0.9952
vn -0.2786 0.2806 0.9185
vn -0.2903 -0.0000 0.9569
vn -0.4525 0.2806 0.8465
vn -0.4714 -0.0000 0.8819
vn -0.6089 0.2806 0.7419
vn -0.6344 -0.0000 0.7730
vn -0.7419 0.2806 0.6089
vn -0.7730 -0.0000 0.6344
vn -0.8465 0.2806 0.4525
vn -0.8819 -0.0000 0.4714
vn -0.9185 0.2806 0.2786
vn -0.9569 -0.0000 0.2903
vn -0.9552 0.2806 0.0941
vn -0.9952 -0.0000 0.0980
vn -0.9552 0.2806 -0.0941
vn -0.9952 -0.0000 -0.0980
vn -0.9185 0.2806 -0.2786
vn -0.9569 -0.0000 -0.2903
vn -0.8465 0.2806 -0.4525
vn -0.8819 -0.0000 -0.4714
vn -0.7419 0.2806 -0.6089
vn -0.7730 -0.0000 -0.6344
vn -0.6089 0.2806 -0.7419
vn -0.6344 -0.0000 -0.7730
vn -0.4525 0.2806 -0.8465
vn -0.4714 -0.0000 -0.8819
vn -0.2786 0.2806 -0.9185
vn -0.2903 -0.0000 -0.9569
vn -0.0000 1.0000 -0.0000
vt 0.750000 0.490000
vt 0.796822 0.485388
vt 0.784380 0.422838
vt 0.750000 0.426224
vt 0.841844 0.471731
vt 0.817438 0.412810
vt 0.883337 0.449553
vt 0.847905 0.396525
vt 0.919706 0.419706
vt 0.874610 0.374610
vt 0.949553 0.383337
vt 0.896525 0.347905
vt 0.971731 0.341844
vt 0.912810 0.317438
vt 0.985388 0.296822
vt 0.922838 0.284380
vt 0.990000 0.250000
vt 0.926224 0.250000
vt 0.985388 0.203178
vt 0.922838 0.215620
vt 0.971731 0.158156
vt 0.912810 0.182562
vt 0.949553 0.116663
vt 0.896525 0.152095
vt 0.919706 0.080294
vt 0.874610 0.125391
vt 0.883337 0.050447
vt 0.847905 0.103475
vt 0.841844 0.028269
vt 0.817438 0.087190
vt 0.796822 0.014612
vt 0.784380 0.077162
vt 0.750000 0.010000
vt 0.750000 0.073776
vt 0.703178 0.014612
vt 0.715620 0.077162
vt 0.658156 0.028269
vt 0.682562 0.087190
vt 0.616663 0.050447
vt 0.652095 0.103475
vt 0.580294 0.080294
vt 0.625391 0.125391
vt 0.550447 0.116663
vt 0.603475 0.152095
vt 0.528269 0.158156
vt 0.587190 0.182562
vt 0.514612 0.203178
vt 0.577162 0.215620
vt 0.510000 0.250000
vt 0.573776 0.250000
vt 0.514612 0.296822
vt 0.577162 0.284380
vt 0.528269 0.341844
vt 0.587190 0.317438
vt 0.550447 0.383337
vt 0.603475 0.347905
vt 0.580294 0.419706
vt 0.625391 0.374609
vt 0.616663 0.449553
vt 0.652095 0.396525
vt 0.658156 0.471731
vt 0.682562 0.412810
vt 0.703178 0.485388
vt 0.715620 0.422838
vt 0.296822 0.485388
vt 0.250000 0.490000
vt 0.250000 0.454760
vt 0.289947 0.450826
vt 0.341844 0.471731
vt 0.328358 0.439174
vt 0.383337 0.449553
vt 0.363759 0.420252
vt 0.419706 0.419706
vt 0.394788 0.394788
vt 0.449553 0.383337
vt 0.420252 0.363759
vt 0.471731 0.341844
vt 0.439174 0.328358
vt 0.485388 0.296822
vt 0.450826 0.289947
vt 0.490000 0.250000
vt 0.454760 0.250000
vt 0.485388 0.203178
vt 0.450826 0.210053
vt 0.471731 0.158156
vt 0.439174 0.171642
vt 0.449553 0.116663
vt 0.420252 0.136241
vt 0.419706 0.080294
vt 0.394788 0.105212
vt 0.383337 0.050447
vt 0.363759 0.079748
vt 0.341844 0.028269
vt 0.328358 0.060826
vt 0.296822 0.014612
vt 0.289947 0.049174
vt 0.250000 0.010000
vt 0.250000 0.045240
vt 0.203178 0.014612
vt 0.210053 0.049174
vt 0.158156 0.028269
vt 0.171642 0.060826
vt 0.116663 0.050447
vt 0.136241 0.079748
vt 0.080294 0.080294
vt 0.105212 0.105212
vt 0.050447 0.116663
vt 0.079748 0.136241
vt 0.028269 0.158156
vt 0.060826 0.171642
vt 0.014612 0.203178
vt 0.049174 0.210053
vt 0.010000 0.250000
vt 0.045240 0.250000
vt 0.014612 0.296822
vt 0.049174 0.289947
vt 0.028269 0.341844
vt 0.060826 0.328358
vt 0.050447 0.383337
vt 0.079748 0.363759
vt 0.080294 0.419706
vt 0.105212 0.394788
vt 0.116663 0.449553
vt 0.136241 0.420252
vt 0.158156 0.471731
vt 0.171642 0.439174
vt 0.203178 0.485388
vt 0.210053 0.450826
vt 1.000000 0.523366
vt 1.000000 0.835885
vt 0.968750 0.835885
vt 0.968750 0.523366
vt 0.250000 0.266179
vt 0.253156 0.265868
vt 0.246844 0.265868
vt 0.031250 0.523366
vt 0.031250 0.835885
vt 0.000000 0.835885
vt 0.000000 0.523366
vt 0.256191 0.264947
vt 0.937500 0.835885
vt 0.937500 0.523366
vt 0.258988 0.263452
vt 0.906250 0.835885
vt 0.906250 0.523366
vt 0.261440 0.261440
vt 0.875000 0.835885
vt 0.875000 0.523366
vt 0.263452 0.258988
vt 0.843750 0.835885
vt 0.843750 0.523366
vt 0.264947 0.256191
vt 0.812500 0.835885
vt 0.812500 0.523366
vt 0.265868 0.253156
vt 0.781250 0.835885
vt 0.781250 0.523366
vt 0.266179 0.250000
vt 0.750000 0.835885
vt 0.750000 0.523366
vt 0.265868 0.246844
vt 0.718750 0.835885
vt 0.718750 0.523366
vt 0.264947 0.243809
vt 0.687500 0.835885
vt 0.687500 0.523366
vt 0.263452 0.241012
vt 0.656250 0.835885
vt 0.656250 0.523366
vt 0.261440 0.238560
vt 0.625000 0.835885
vt 0.625000 0.523366
vt 0.258988 0.236548
vt 0.593750 0.835885
vt 0.593750 0.523366
vt 0.256191 0.235053
vt 0.562500 0.835885
vt 0.562500 0.523366
vt 0.253156 0.234132
vt 0.531250 0.835885
vt 0.531250 0.523366
vt 0.250000 0.233821
vt 0.500000 0.835885
vt 0.500000 0.523366
vt 0.246844 0.234132
vt 0.468750 0.835885
vt 0.468750 0.523366
vt 0.243809 0.235053
vt 0.437500 0.835885
vt 0.437500 0.523366
vt 0.241012 0.236548
vt 0.406250 0.835885
vt 0.406250 0.523366
vt 0.238560 0.238560
vt 0.375000 0.835885
vt 0.375000 0.523366
vt 0.236548 0.241012
vt 0.343750 0.835885
vt 0.343750 0.523366
vt 0.235053 0.243809
vt 0.312500 0.835885
vt 0.312500 0.523366
vt 0.234132 0.246844
vt 0.281250 0.835885
vt 0.281250 0.523366
vt 0.233821 0.250000
vt 0.250000 0.835885
vt 0.250000 0.523366
vt 0.234132 0.253156
vt 0.218750 0.835885
vt 0.218750 0.523366
vt 0.235053 0.256191
vt 0.187500 0.835885
vt 0.187500 0.523366
vt 0.236548 0.258988
vt 0.156250 0.835885
vt 0.156250 0.523366
vt 0.238560 0.261440
vt 0.125000 0.835885
vt 0.125000 0.523366
vt 0.241012 0.263452
vt 0.093750 0.835885
vt 0.093750 0.523366
vt 0.243809 0.264947
vt 0.062500 0.835885
vt 0.062500 0.523366
vt 0.249319 0.623981
vt 0.249134 0.624134
vt 0.248981 0.624319
vt 0.248868 0.624531
vt 0.248798 0.624761
vt 0.248775 0.625000
vt 0.248798 0.625239
vt 0.248868 0.625469
vt 0.248981 0.625681
vt 0.249134 0.625866
vt 0.249319 0.626019
vt 0.249531 0.626132
vt 0.249761 0.626202
vt 0.250000 0.626225
vt 0.250239 0.626202
vt 0.250469 0.626132
vt 0.250681 0.626019
vt 0.250866 0.625866
vt 0.251019 0.625681
vt 0.251132 0.625469
vt 0.251202 0.625239
vt 0.251225 0.625000
vt 0.251202 0.624761
vt 0.251132 0.624531
vt 0.251019 0.624319
vt 0.250866 0.624134
vt 0.250681 0.623981
vt 0.250469 0.623868
vt 0.250239 0.623798
vt 0.250000 0.623775
vt 0.249761 0.623798
vt 0.249531 0.623868
s 1
f 2/1/1 4/2/1 3/3/1 1/4/1
f 4/2/2 6/5/2 5/6/2 3/3/2
f 6/5/3 8/7/3 7/8/3 5/6/3
f 8/7/4 10/9/4 9/10/4 7/8/4
f 10/9/5 12/11/5 11/12/5 9/10/5
f 12/11/6 14/13/6 13/14/6 11/12/6
f 14/13/7 16/15/7 15/16/7 13/14/7
f 16/15/8 18/17/8 17/18/8 15/16/8
f 18/17/9 20/19/9 19/20/9 17/18/9
f 20/19/10 22/21/10 21/22/10 19/20/10
f 22/21/11 24/23/11 23/24/11 21/22/11
f 24/23/12 26/25/12 25/26/12 23/24/12
f 26/25/13 28/27/13 27/28/13 25/26/13
f 28/27/14 30/29/14 29/30/14 27/28/14
f 30/29/15 32/31/15 31/32/15 29/30/15
f 32/31/16 34/33/16 33/34/16 31/32/16
f 34/33/17 36/35/17 35/36/17 33/34/17
f 36/35/18 38/37/18 37/38/18 35/36/18
f 38/37/19 40/39/19 39/40/19 37/38/19
f 40/39/20 42/41/20 41/42/20 39/40/20
f 42/41/21 44/43/21 43/44/21 41/42/21
f 44/43/22 46/45/22 45/46/22 43/44/22
f 46/45/23 48/47/23 47/48/23 45/46/23
f 48/47/24 50/49/24 49/50/24 47/48/24
f 50/49/25 52/51/25 51/52/25 49/50/25
f 52/51/26 54/53/26 53/54/26 51/52/26
f 54/53/27 56/55/27 55/56/27 53/54/27
f 56/55/28 58/57/28 57/58/28 55/56/28
f 58/57/29 60/59/29 59/60/29 57/58/29
f 60/59/30 62/61/30 61/62/30 59/60/30
f 62/61/31 64/63/31 63/64/31 61/62/31
f 64/63/32 2/1/32 1/4/32 63/64/32
f 63/64/33 1/4/33 3/3/33 5/6/33 7/8/33 9/10/33 11/12/33 13/14/33 15/16/33 17/18/33 19/20/33 21/22/33 23/24/33 25/26/33 27/28/33 29/30/33 31/32/33 33/34/33 35/36/33 37/38/33 39/40/33 41/42/33 43/44/33 45/46/33 47/48/33 49/50/33 51/52/33 53/54/33 55/56/33 57/58/33 59/60/33 61/62/33
f 68/65/34 65/66/34 66/67/34 67/68/34
f 70/69/35 68/65/35 67/68/35 69/70/35
f 72/71/36 70/69/36 69/70/36 71/72/36
f 74/73/37 72/71/37 71/72/37 73/74/37
f 76/75/38 74/73/38 73/74/38 75/76/38
f 78/77/39 76/75/39 75/76/39 77/78/39
f 80/79/40 78/77/40 77/78/40 79/80/40
f 82/81/41 80/79/41 79/80/41 81/82/41
f 84/83/42 82/81/42 81/82/42 83/84/42
f 86/85/43 84/83/43 83/84/43 85/86/43
f 88/87/44 86/85/44 85/86/44 87/88/44
f 90/89/45 88/87/45 87/88/45 89/90/45
f 92/91/46 90/89/46 89/90/46 91/92/46
f 94/93/47 92/91/47 91/92/47 93/94/47
f 96/95/48 94/93/48 93/94/48 95/96/48
f 98/97/49 96/95/49 95/96/49 97/98/49
f 100/99/50 98/97/50 97/98/50 99/100/50
f 102/101/51 100/99/51 99/100/51 101/102/51
f 104/103/52 102/101/52 101/102/52 103/104/52
f 106/105/53 104/103/53 103/104/53 105/106/53
f 108/107/54 106/105/54 105/106/54 107/108/54
f 110/109/55 108/107/55 107/108/55 109/110/55
f 112/111/56 110/109/56 109/110/56 111/112/56
f 114/113/57 112/111/57 111/112/57 113/114/57
f 116/115/58 114/113/58 113/114/58 115/116/58
f 118/117/59 116/115/59 115/116/59 117/118/59
f 120/119/60 118/117/60 117/118/60 119/120/60
f 122/121/61 120/119/61 119/120/61 121/122/61
f 124/123/62 122/121/62 121/122/62 123/124/62
f 126/125/63 124/123/63 123/124/63 125/126/63
f 128/127/64 126/125/64 125/126/64 127/128/64
f 65/66/65 128/127/65 127/128/65 66/67/65
f 2/129/66 65/130/66 68/131/66 4/132/66
f 67/68/67 66/67/67 130/133/67 129/134/67
f 66/67/68 127/128/68 131/135/68 130/133/68
f 64/136/69 128/137/69 65/138/69 2/139/69
f 132/140/70 69/70/70 67/68/70 129/134/70
f 4/132/71 68/131/71 70/141/71 6/142/71
f 133/143/72 71/72/72 69/70/72 132/140/72
f 6/142/73 70/141/73 72/144/73 8/145/73
f 134/146/74 73/74/74 71/72/74 133/143/74
f 8/145/75 72/144/75 74/147/75 10/148/75
f 75/76/76 73/74/76 134/146/76 135/149/76
f 10/148/77 74/147/77 76/150/77 12/151/77
f 77/78/78 75/76/78 135/149/78 136/152/78
f 12/151/79 76/150/79 78/153/79 14/154/79
f 79/80/80 77/78/80 136/152/80 137/155/80
f 14/154/81 78/153/81 80/156/81 16/157/81
f 138/158/82 81/82/82 79/80/82 137/155/82
f 16/157/83 80/156/83 82/159/83 18/160/83
f 139/161/84 83/84/84 81/82/84 138/158/84
f 18/160/85 82/159/85 84/162/85 20/163/85
f 85/86/86 83/84/86 139/161/86 140/164/86
f 20/163/87 84/162/87 86/165/87 22/166/87
f 87/88/88 85/86/88 140/164/88 141/167/88
f 22/166/89 86/165/89 88/168/89 24/169/89
f 89/90/90 87/88/90 141/167/90 142/170/90
f 24/169/91 88/168/91 90/171/91 26/172/91
f 143/173/92 91/92/92 89/90/92 142/170/92
f 26/172/93 90/171/93 92/174/93 28/175/93
f 93/94/94 91/92/94 143/173/94 144/176/94
f 28/175/95 92/174/95 94/177/95 30/178/95
f 95/96/96 93/94/96 144/176/96 145/179/96
f 30/178/97 94/177/97 96/180/97 32/181/97
f 146/182/98 97/98/98 95/96/98 145/179/98
f 32/181/99 96/180/99 98/183/99 34/184/99
f 147/185/100 99/100/100 97/98/100 146/182/100
f 34/184/101 98/183/101 100/186/101 36/187/101
f 101/102/102 99/100/102 147/185/102 148/188/102
f 36/187/103 100/186/103 102/189/103 38/190/103
f 103/104/104 101/102/104 148/188/104 149/191/104
f 38/190/105 102/189/105 104/192/105 40/193/105
f 105/106/106 103/104/106 149/191/106 150/194/106
f 40/193/107 104/192/107 106/195/107 42/196/107
f 151/197/108 107/108/108 105/106/108 150/194/108
f 42/196/109 106/195/109 108/198/109 44/199/109
f 152/200/110 109/110/110 107/108/110 151/197/110
f 44/199/111 108/198/111 110/201/111 46/202/111
f 153/203/112 111/112/112 109/110/112 152/200/112
f 46/202/113 110/201/113 112/204/113 48/205/113
f 113/114/114 111/112/114 153/203/114 154/206/114
f 48/205/115 112/204/115 114/207/115 50/208/115
f 115/116/116 113/114/116 154/206/116 155/209/116
f 50/208/117 114/207/117 116/210/117 52/211/117
f 156/212/118 117/118/118 115/116/118 155/209/118
f 52/211/119 116/210/119 118/213/119 54/214/119
f 157/215/120 119/120/120 117/118/120 156/212/120
f 54/214/121 118/213/121 120/216/121 56/217/121
f 158/218/122 121/122/122 119/120/122 157/215/122
f 56/217/123 120/216/123 122/219/123 58/220/123
f 159/221/124 123/124/124 121/122/124 158/218/124
f 58/220/125 122/219/125 124/222/125 60/223/125
f 160/224/126 125/126/126 123/124/126 159/221/126
f 60/223/127 124/222/127 126/225/127 62/226/127
f 131/135/128 127/128/128 125/126/128 160/224/128
f 62/226/129 126/225/129 128/137/129 64/136/129
s 0
f 159/227/130 158/228/130 157/229/130 156/230/130 155/231/130 154/232/130 153/233/130 152/234/130 151/235/130 150/236/130 149/237/130 148/238/130 147/239/130 146/240/130 145/241/130 144/242/130 143/243/130 142/244/130 141/245/130 140/246/130 139/247/130 138/248/130 137/249/130 136/250/130 135/251/130 134/252/130 133/253/130 132/254/130 129/255/130 130/256/130 131/257/130 160/258/130
